# xmcd
#
# Track frame offsets:
#	150
#	34830
#	62300
#	81060
#	112206
#	139324
#	163442
#	177960
#	188766
#
# Disc length: 2902 seconds
#
# Revision: 13
# Processed by: cddbd v1.5.2PL0 Copyright (c) Steve Scherf et al.
# Submitted via: Jack! The Knife 20 Magnifico
#
DISCID=7c0b5409
DTITLE=Anvil - Worth The Weight
DYEAR=1992
DGENRE=Heavy Metal
TTITLE0=Infanticide
TTITLE1=On The Way To Hell
TTITLE2=Bushpig
TTITLE3=Embalmer
TTITLE4=Pow Wow
TTITLE5=Sins Of The Flesh
TTITLE6=A.Z. #85
TTITLE7=Sadness
TTITLE8=Love Me When I'm Dead
EXTD=Anvil and Paul Lachapelle
EXTT0=Kudlow, Marino, Dickson, Reiner
EXTT1=Kudlow, Marino, Dickson, Reiner
EXTT2=Kudlow, Marino, Dickson, Reiner
EXTT3=Kudlow, Marino, Dickson, Reiner
EXTT4=Kudlow, Marino, Dickson, Reiner
EXTT5=Kudlow, Marino, Dickson, Reiner
EXTT6=Kudlow, Marino, Dickson, Reiner
EXTT7=Kudlow, Marino, Dickson, Reiner
EXTT8=Kudlow, Marino, Dickson, Reiner
PLAYORDER=
